/* XPM */
static char *result[] = {
/* columns rows colors chars-per-pixel */
"16 16 3 1 ",
"  c black",
". c #FFEC00",
"X c None",
/* pixels */
"XXXXXXXXXXXXXXXX",
"XXX....XXXX..XXX",
"XX.....XXXX...XX",
"X......XXXX....X",
"X.......XX.....X",
"........XX......",
"........XX......",
"................",
"................",
"...  ...........",
"...  ...........",
"X..............X",
"X..............X",
"XX............XX",
"XXX..........XXX",
"XXXXX......XXXXX"
};
