/* XPM */
static char *result[] = {
/* columns rows colors chars-per-pixel */
"16 16 2 1 ",
"  c gray18",
". c #13039E",
/* pixels */
"................",
".              .",
".              .",
".              .",
".              .",
".              .",
".              .",
".              .",
".              .",
".              .",
".              .",
".              .",
".              .",
".              .",
".              .",
"................"
};
