/* XPM */
static char *result[] = {
/* columns rows colors chars-per-pixel */
"16 16 31 1 ",
"  c #D71A16",
". c #E6000F",
"X c #E70010",
"o c #E60011",
"O c #E70011",
"+ c #E60012",
"@ c #E40514",
"# c #E40917",
"$ c #CE2919",
"% c #D32118",
"& c #C43B1C",
"* c #E61021",
"= c #E51122",
"- c #E51424",
"; c #E51C2C",
": c #E42735",
"> c #B55521",
", c #B45721",
"< c #AD6223",
"1 c #AC6423",
"2 c #AC6424",
"3 c #A96B24",
"4 c #C0421D",
"5 c #E43845",
"6 c #E34854",
"7 c #E3535E",
"8 c #E2616B",
"9 c #E26670",
"0 c #E19298",
"q c #E09FA4",
"w c None",
/* pixels */
"wwwwwwwwwwwww21w",
"wwwwwwwwwwww211w",
"wwwwwwwwww1<111w",
"wwwwwwww11w11www",
"wwwwwww1www11www",
"wwXXX43wwww1wwww",
"wooo%&$www1wwwww",
"ooo#& O+w<wwwwww",
"X#-oo@+w@,%oowww",
"X6q*owwO#> o+oww",
"o-70;wwoo #oo+ww",
"w.-8-ww;9#ooo+ww",
"wwo..ww:07-oo+ww",
"wwwwwwwO-q5o+oww",
"wwwwwwww@=@+.www",
"wwwwwwwwwwwwwwww"
};
